# xmcd
#
# Track frame offsets: 
#        150
#        14285
#        28635
#        40662
#        58645
#        70172
#        78247
#        93947
#        106765
#        120117
#        133320
#        146212
#
# Disc length: 2147 seconds
#
# Revision: 3
# Processed by: cddbd v1.5PL3 Copyright (c) Steve Scherf et al.
# Submitted via: ExactAudioCopy v0.95a5
#
DISCID=9508610c
DTITLE=Billie Holiday - American Legends
DYEAR=1996
DGENRE=Jazz
TTITLE0=Good Morning Heartache
TTITLE1=As Time Goes By
TTITLE2=Billie's Blues
TTITLE3=God Bless The Child
TTITLE4=Riffin' The Scotch
TTITLE5=Swing Brother, Swing
TTITLE6=You Turned The Tables On Me
TTITLE7=Why Was I Born?
TTITLE8=You Go To My Head
TTITLE9=For All We Know
TTITLE10=Did I Remember?
TTITLE11=Travelin' Light (With Paul Whiteman and His Orchestra)
EXTD=YEAR: 1996
EXTT0=
EXTT1=
EXTT2=
EXTT3=
EXTT4=
EXTT5=
EXTT6=
EXTT7=
EXTT8=
EXTT9=
EXTT10=
EXTT11=
PLAYORDER=
